<?xml version="1.0" encoding="utf-8"?>
<!-- Generator: Adobe Illustrator 21.1.0, SVG Export Plug-In . SVG Version: 6.00 Build 0)  -->
<svg version="1.1" id="Laag_1" xmlns="http://www.w3.org/2000/svg" xmlns:xlink="http://www.w3.org/1999/xlink" x="0px" y="0px"
	 viewBox="0 0 841.9 595.3" style="enable-background:new 0 0 841.9 595.3;" xml:space="preserve">
<style type="text/css">
	.st0{fill:#2F2356;}
	.st1{fill-rule:evenodd;clip-rule:evenodd;fill:#2F2356;}
</style>
<g>
	<path class="st0" d="M120.5,297.5c0,5.1,1,9.8,3,14.2c2,4.4,4.7,8.2,8.1,11.4c3.4,3.2,7.5,5.7,12.1,7.6c4.7,1.8,9.7,2.8,15,2.8
		c5.1,0,10-1,14.5-3c4.5-2,8.6-4.6,12.2-7.8l10.7,10.7c-4.8,4.6-10.4,8.2-16.8,10.8c-6.5,2.6-13.6,4-21.3,4c-7.6,0-14.7-1.3-21.3-4
		c-6.6-2.6-12.3-6.2-17.1-10.8c-4.9-4.6-8.7-9.9-11.4-16.1c-2.8-6.2-4.1-12.8-4.1-19.9c0-7.2,1.4-13.8,4.1-20.1
		c2.8-6.2,6.5-11.6,11.3-16.2c4.8-4.6,10.5-8.1,17.1-10.7c6.6-2.6,13.7-3.9,21.4-3.9c7.7,0,14.8,1.3,21.2,4
		c6.4,2.6,12.1,6.2,16.9,10.8l-10.8,10.7c-3.4-3.1-7.4-5.7-12-7.6c-4.6-2-9.4-3-14.6-3c-5.5,0-10.6,0.9-15.3,2.8
		c-4.7,1.8-8.7,4.4-12.1,7.6c-3.4,3.2-6.1,7-8,11.4C121.5,287.7,120.5,292.4,120.5,297.5z"/>
	<path class="st0" d="M194.1,312.4c0-4.9,1-9.5,2.9-13.9c1.9-4.3,4.6-8.1,8.1-11.3c3.4-3.2,7.4-5.7,12.1-7.6
		c4.6-1.8,9.5-2.7,14.8-2.7c5.2,0,10.2,0.9,14.8,2.7c4.6,1.8,8.6,4.4,12.1,7.6c3.4,3.2,6.1,7,8.1,11.3c1.9,4.3,2.9,9,2.9,13.9
		c0,4.9-1,9.5-2.9,13.9c-2,4.3-4.6,8.1-8.1,11.3c-3.4,3.2-7.4,5.7-12.1,7.6c-4.6,1.8-9.5,2.7-14.8,2.7c-5.2,0-10.2-0.9-14.8-2.7
		c-4.6-1.8-8.6-4.4-12.1-7.6c-3.4-3.2-6.1-7-8.1-11.3C195.1,322,194.1,317.3,194.1,312.4z M209.4,312.4c0,3,0.6,5.9,1.8,8.5
		c1.2,2.6,2.8,4.9,4.8,6.8c2,1.9,4.4,3.4,7.1,4.5c2.8,1.1,5.7,1.6,8.8,1.6c3.1,0,6.1-0.5,8.8-1.6c2.8-1.1,5.1-2.6,7.1-4.5
		c2-1.9,3.6-4.2,4.8-6.8c1.2-2.6,1.8-5.4,1.8-8.5c0-3-0.6-5.9-1.8-8.5c-1.2-2.6-2.8-4.8-4.8-6.8c-2-1.9-4.4-3.4-7.1-4.5
		c-2.8-1.1-5.7-1.6-8.8-1.6c-3.1,0-6.1,0.5-8.8,1.6c-2.8,1.1-5.1,2.6-7.1,4.5c-2,1.9-3.6,4.2-4.8,6.8
		C210,306.6,209.4,309.4,209.4,312.4z"/>
	<path class="st0" d="M323,336c-2.2,3.5-5.4,6.4-9.6,8.7c-4.2,2.3-9,3.4-14.6,3.4c-4.2,0-7.9-0.6-11.1-1.7c-3.2-1.1-5.9-2.7-8.1-4.6
		c-2.2-2-3.9-4.2-5.1-6.8c-1.2-2.6-1.8-5.4-1.8-8.3c0-2.7,0.6-5.3,1.7-7.7c1.1-2.5,2.9-4.6,5.3-6.4c2.4-1.8,5.4-3.2,9.1-4.3
		c3.7-1.1,8.1-1.6,13.1-1.6h20.8v-1.3c0-4.1-1.3-7.6-3.9-10.5c-2.6-2.9-6.6-4.4-12.1-4.4c-3.2,0-6.2,0.6-9,1.9
		c-2.8,1.3-5.2,3-7.3,5.2l-10.4-8.6c3-3.3,6.9-6.1,11.4-8.4c4.6-2.3,9.7-3.5,15.3-3.6c5.1,0,9.7,0.8,13.6,2.3
		c3.9,1.5,7.2,3.6,9.8,6.1c2.6,2.5,4.6,5.5,5.9,9c1.3,3.4,2,7,2,10.8v41.6H323V336z M288.6,326.6c0,2.7,1.2,4.9,3.7,6.6
		c2.5,1.7,5.7,2.6,9.6,2.6c2.6,0,5.1-0.4,7.6-1.2c2.5-0.8,4.7-2,6.7-3.6c2-1.6,3.6-3.4,4.9-5.6c1.2-2.2,1.9-4.6,1.9-7.3H302
		c-4.8,0-8.2,0.8-10.3,2.4C289.6,322.2,288.6,324.2,288.6,326.6z"/>
	<path class="st0" d="M358.3,296.7c0,1.8,0.7,3.3,2.1,4.4c1.4,1.2,3.4,2.1,6,2.8l16.8,4.2c7.4,1.8,12.8,4.5,16.3,8
		c3.4,3.5,5.1,7.8,5.1,12.8c0,2.9-0.6,5.5-1.8,7.9c-1.2,2.4-3,4.5-5.4,6.3c-2.4,1.8-5.5,3.2-9.1,4.2c-3.7,1-8,1.5-12.9,1.5
		c-3.8,0-7.4-0.4-10.8-1.1c-3.4-0.7-6.6-1.7-9.4-3c-2.9-1.3-5.4-2.7-7.6-4.4c-2.2-1.7-3.9-3.4-5.1-5.3l11.7-7.9
		c2.2,2.8,5.3,4.9,9.3,6.4c4,1.5,8,2.3,12,2.3c4.3,0,7.6-0.7,9.8-2c2.3-1.3,3.4-3,3.4-5.1c0-1.6-0.6-3.1-1.9-4.4
		c-1.2-1.3-3.4-2.3-6.6-3.2l-15.6-3.9c-7.7-1.9-13.3-4.6-16.8-8.1c-3.5-3.5-5.3-7.8-5.3-12.7c0-2.8,0.6-5.4,1.9-7.9
		c1.3-2.5,3.2-4.7,5.7-6.6c2.5-1.9,5.6-3.4,9.3-4.5c3.7-1.1,7.9-1.7,12.7-1.7c4.3,0,8.3,0.6,12,1.8c3.7,1.2,6.9,2.8,9.7,4.9
		c2.8,2.1,4.9,4.5,6.6,7.4c1.6,2.9,2.4,5.9,2.4,9.1h-15.4c-0.1-1.3-0.5-2.7-1.3-4c-0.8-1.3-1.8-2.5-3.2-3.5c-1.4-1-3-1.8-4.8-2.4
		c-1.8-0.6-3.8-0.9-6-0.9c-4.9,0-8.5,0.9-10.7,2.5C359.4,292.8,358.3,294.7,358.3,296.7z"/>
	<path class="st0" d="M421.7,346.8v-55.8h-16.8v-12.9h16.8v-17.2h15.7v17.2h16.8v12.9h-16.8v55.8H421.7z"/>
	<path class="st0" d="M525,312.9c0,0.8-0.1,1.7-0.2,2.8c-0.1,1.1-0.3,1.9-0.5,2.5h-56.9c0,2.1,0.6,4.2,1.7,6.2
		c1.1,2,2.7,3.7,4.6,5.2c1.9,1.5,4.2,2.7,6.9,3.6c2.6,0.9,5.4,1.3,8.3,1.3c3.8,0,7.3-0.6,10.4-1.9c3.1-1.3,5.8-3.1,8.1-5.3l11.3,8.6
		c-3.6,3.8-8,6.8-13.1,9c-5.1,2.1-10.7,3.2-16.9,3.2c-4.6,0-9.1-0.7-13.6-2.2c-4.5-1.5-8.5-3.7-12.1-6.6s-6.4-6.7-8.6-11.1
		c-2.2-4.5-3.3-9.7-3.3-15.7c0-4.9,0.9-9.5,2.6-13.9c1.8-4.3,4.2-8.1,7.4-11.3c3.2-3.2,7-5.8,11.5-7.6c4.5-1.9,9.5-2.8,15-2.8
		c5.5,0,10.6,0.9,15.2,2.8c4.6,1.9,8.5,4.4,11.8,7.6c3.2,3.2,5.8,7,7.6,11.5C524.1,303.1,525,307.9,525,312.9z M488.1,289.9
		c-3.2,0-6.1,0.5-8.7,1.5c-2.6,1-4.7,2.3-6.5,3.9c-1.8,1.6-3.1,3.4-4.1,5.4c-1,2-1.4,4-1.4,6h41.4c0-1.9-0.5-3.8-1.4-5.8
		c-1-2-2.3-3.8-4.1-5.4c-1.8-1.6-4-2.9-6.6-4C494.1,290.4,491.2,289.9,488.1,289.9z"/>
	<path class="st0" d="M547.7,346.8H532v-68.7h13.6v10.2c2.8-3.2,6.1-5.7,10.1-7.5c3.9-1.8,8.3-2.7,12.9-2.7h4v12.9h-4
		c-3,0-5.9,0.5-8.4,1.5c-2.6,1-4.8,2.3-6.6,4.1c-1.9,1.7-3.3,3.8-4.3,6.2c-1,2.4-1.5,5-1.5,7.8V346.8z"/>
	<path class="st0" d="M592,296.7c0,1.8,0.7,3.3,2.1,4.4c1.4,1.2,3.4,2.1,6,2.8l16.8,4.2c7.4,1.8,12.8,4.5,16.3,8
		c3.4,3.5,5.1,7.8,5.1,12.8c0,2.9-0.6,5.5-1.8,7.9c-1.2,2.4-3,4.5-5.4,6.3c-2.4,1.8-5.5,3.2-9.1,4.2c-3.7,1-8,1.5-12.9,1.5
		c-3.8,0-7.4-0.4-10.8-1.1c-3.4-0.7-6.6-1.7-9.4-3c-2.9-1.3-5.4-2.7-7.6-4.4c-2.2-1.7-3.9-3.4-5.1-5.3l11.7-7.9
		c2.2,2.8,5.3,4.9,9.3,6.4c4,1.5,8,2.3,12,2.3c4.3,0,7.6-0.7,9.8-2c2.3-1.3,3.4-3,3.4-5.1c0-1.6-0.6-3.1-1.9-4.4
		c-1.2-1.3-3.4-2.3-6.6-3.2l-15.6-3.9c-7.7-1.9-13.3-4.6-16.8-8.1c-3.5-3.5-5.3-7.8-5.3-12.7c0-2.8,0.6-5.4,1.9-7.9
		c1.3-2.5,3.2-4.7,5.7-6.6c2.5-1.9,5.6-3.4,9.3-4.5c3.7-1.1,7.9-1.7,12.7-1.7c4.3,0,8.3,0.6,12,1.8c3.7,1.2,6.9,2.8,9.7,4.9
		c2.8,2.1,4.9,4.5,6.6,7.4c1.6,2.9,2.4,5.9,2.4,9.1h-15.4c-0.1-1.3-0.5-2.7-1.3-4c-0.8-1.3-1.8-2.5-3.2-3.5c-1.4-1-3-1.8-4.8-2.4
		c-1.8-0.6-3.8-0.9-6-0.9c-4.9,0-8.5,0.9-10.7,2.5C593.1,292.8,592,294.7,592,296.7z"/>
	<path class="st0" d="M639.9,336.4c0-2.9,1.1-5.3,3.2-7.2c2.1-2,4.7-3,7.8-3c3,0,5.6,1,7.7,3c2.1,2,3.1,4.4,3.1,7.2
		c0,2.9-1,5.3-3.1,7.3c-2.1,2-4.7,3-7.7,3c-3,0-5.6-1-7.8-3C641,341.7,639.9,339.3,639.9,336.4z"/>
	<path class="st0" d="M737.6,312.4c0,4.7-0.9,9.2-2.7,13.4c-1.8,4.2-4.3,7.8-7.4,10.9c-3.1,3.1-6.9,5.5-11.3,7.3
		c-4.4,1.8-9.1,2.7-14.3,2.7c-4.4,0-8.5-0.9-12.3-2.7c-3.8-1.8-6.9-4-9.4-6.7v43.7h-15.4v-103h15.4v9.4c2.5-2.8,5.6-5,9.3-6.8
		c3.8-1.7,7.9-2.6,12.3-2.6c5.1,0,9.9,0.9,14.3,2.7c4.4,1.8,8.1,4.2,11.3,7.3c3.1,3.1,5.6,6.7,7.4,10.9
		C736.7,303.2,737.6,307.7,737.6,312.4z M678.8,312.4c0,2.9,0.5,5.5,1.6,8c1.1,2.5,2.6,4.6,4.6,6.4c1.9,1.8,4.2,3.3,6.8,4.4
		c2.6,1.1,5.4,1.6,8.4,1.6c3,0,5.9-0.5,8.6-1.6c2.7-1.1,5-2.5,6.9-4.4c1.9-1.8,3.5-4,4.6-6.4c1.1-2.5,1.7-5.1,1.7-8
		c0-2.9-0.6-5.5-1.7-8c-1.1-2.5-2.7-4.6-4.6-6.4c-2-1.8-4.3-3.3-6.9-4.4c-2.7-1.1-5.5-1.6-8.6-1.6c-3,0-5.9,0.5-8.4,1.6
		c-2.6,1.1-4.8,2.5-6.8,4.4c-1.9,1.8-3.5,4-4.6,6.4C679.4,306.9,678.8,309.6,678.8,312.4z"/>
	<path class="st0" d="M814.8,346.8h-15.4v-35.7c0-2.7-0.5-5.2-1.6-7.6c-1.1-2.4-2.6-4.5-4.4-6.2s-4.1-3.1-6.6-4.2
		c-2.6-1-5.3-1.5-8.1-1.5c-2.9,0-5.5,0.5-8.1,1.5c-2.5,1-4.7,2.5-6.6,4.3c-1.9,1.8-3.4,4-4.6,6.4c-1.1,2.4-1.7,5-1.7,7.8v35.3h-15.7
		v-103h15.7v44.5c2.8-3.4,6.2-6.1,10.2-8.3c4-2.1,8.5-3.1,13.3-3c4.7,0,9,0.9,13.1,2.7c4.1,1.8,7.7,4.2,10.7,7.3
		c3,3.1,5.4,6.7,7.2,10.9c1.8,4.2,2.6,8.7,2.6,13.5V346.8z"/>
</g>
<g>
	<g>
		<path class="st1" d="M22.3,239.9c-1.9,1.1-1.8,3.3,2.3,51.6c4,46.6,3.6,44.8,9.2,47.7c2.3,1.2,4.5,1.3,21,1.1
			c16.2-0.2,18.7-0.4,20.5-1.6c4.2-2.7,4.1-2,8.1-50.9l3.9-46.2l-1.7-1.4c-1.6-1.3-3.8-1.4-31.9-1.4C34.6,239,23.1,239.3,22.3,239.9
			z M82.2,247.1c-0.2,1.6-2,21.4-3.8,44.2c-2.9,35.7-3.6,41.5-4.7,42.7c-1.2,1.3-2.9,1.4-19.7,1.3c-16.8,0-18.5-0.2-19.7-1.4
			c-1.3-1.2-1.9-6.5-5.1-44.5c-2-23.8-3.7-43.6-3.7-44.1c0-0.7,6.2-0.9,28.6-0.9h28.6L82.2,247.1z"/>
		<path class="st1" d="M31.1,263.8c-0.8,1.3,4.6,65.1,5.7,67.1c1.2,2.2,4.1,2.4,10.3,0.7c5.5-1.4,6-1.5,11.1-0.4
			c8.4,1.9,11.2,2.1,12.2,1c1.2-1.5,6.2-54.2,6.2-65.6v-3.5C76.6,263.1,31.4,263.4,31.1,263.8z M75.5,268.9
			c-0.2,2.4-1.1,13.3-2,24.3c-1.9,24.3-3.4,37.6-4.4,38.6c-0.5,0.5-2.9,0.2-7.1-0.9c-7.8-2-10.1-2-15.9-0.2
			c-4.7,1.5-6.8,1.5-8.1,0.2c-0.7-0.7-5.7-55.6-5.8-63.1v-3.2h43.7L75.5,268.9z"/>
	</g>
	<path class="st1" d="M34.4,346.3c-9.1,1.7-12.8,3.5-13.2,6.6c-0.5,4.6,8.1,7.2,26.6,8.1c19.3,0.9,35.6-1.7,38.5-6.3
		c1.3-2,1.3-2.2-0.3-3.9c-0.9-0.9-4.4-2.5-7.7-3.4C70.2,345,44.5,344.3,34.4,346.3z"/>
</g>
</svg>
